#!OML:ASF H:\Terrain\Patient Classification 1\Animal2\Wednesday\Animal2.ASF
:FULLY-SPECIFIED
:DEGREES
2011
root 11.5086 17.9655 -2.98465 -0.843756 -54.1046 10.4656
lowerback 4.57465 -1.55325 1.56202
upperback 0.186572 -2.04542 -1.90831
thorax -2.49714 -1.05256 -2.70338
lowerneck -0.317297 2.83275 14.2874
upperneck -0.248375 3.72978 -21.8519
head 0.707627 1.78773 -9.17171
rclavicle -3.32467e-014 1.66979e-014
rhumerus -36.1588 -2.67782 -83.965
rradius 58.1824
rwrist -31.1975
rhand -33.0072 -3.17202
rfingers 7.12502
rthumb -6.22119 -33.0607
lclavicle -3.32467e-014 1.66979e-014
lhumerus -47.7318 8.9283 72.5608
lradius 118.287
lwrist 23.0722
lhand -36.3329 16.3564
lfingers 7.12502
lthumb -9.43099 46.1254
rfemur -21.2002 14.4979 13.8496
rtibia 31.9361
rfoot -21.2097 1.8017
rtoes -11.6582
lfemur -7.44673 1.07874 -4.48408
ltibia 26.1416
lfoot 2.15703 6.13996
ltoes -16.9101
2012
root 11.463 17.963 -2.95088 -0.907067 -54.3992 10.2697
lowerback 4.50966 -1.20177 1.88943
upperback 0.297632 -1.56436 -2.06273
thorax -2.33077 -0.814333 -3.08357
lowerneck -0.685598 2.61338 13.9661
upperneck -0.153331 3.40303 -21.3529
head 0.719163 1.60639 -8.94428
rclavicle 6.21202e-015 -2.3059e-014
rhumerus -35.4482 -2.73467 -84.4542
rradius 59.2333
rwrist -31.0834
rhand -34.4375 -4.20092
rfingers 7.12502
rthumb -7.60191 -34.0443
lclavicle 6.21202e-015 -2.3059e-014
lhumerus -48.6088 9.7219 71.5815
lradius 117.714
lwrist 24.2793
lhand -36.2648 15.6889
lfingers 7.12502
lthumb -9.36534 45.4608
rfemur -20.7524 14.6515 14.0983
rtibia 31.8945
rfoot -21.2082 2.28469
rtoes -10.5272
lfemur -7.63366 0.0451385 -4.22227
ltibia 25.8125
lfoot 2.27744 6.10348
ltoes -16.7837
2013
root 11.4234 17.9695 -2.91316 -1.17204 -54.5072 10.6749
lowerback 4.46004 -0.953701 1.96973
upperback 0.0923424 -1.23979 -2.34146
thorax -2.50042 -0.660265 -3.43903
lowerneck -0.836607 2.41712 13.7074
upperneck 0.137542 3.15882 -20.9278
head 0.767769 1.47294 -8.75542
rclavicle -3.63279e-014 -1.35174e-014
rhumerus -35.1587 -2.42832 -85.0868
rradius 60.4831
rwrist -31.1967
rhand -35.7679 -5.11837
rfingers 7.12502
rthumb -8.88585 -34.9113
lclavicle -3.63279e-014 -1.35174e-014
lhumerus -49.9183 10.365 70.352
lradius 117.211
lwrist 25.8431
lhand -35.9778 15.2414
lfingers 7.12502
lthumb -9.0884 45.0255
rfemur -20.5886 14.589 13.8578
rtibia 31.7894
rfoot -21.3032 2.34896
rtoes -10.9211
lfemur -8.32008 -1.24976 -4.36343
ltibia 25.6616
lfoot 2.22793 6.11492
ltoes -15.9031
2014
root 11.3806 17.977 -2.8805 -1.3279 -54.8898 11.0792
lowerback 4.41506 -0.626805 1.93792
upperback -0.25339 -0.818214 -2.62162
thorax -2.80414 -0.461031 -3.74042
lowerneck -0.73858 2.19655 13.8664
upperneck 0.429744 2.90406 -20.9297
head 0.787818 1.3453 -8.79246
rclavicle -5.59082e-014 2.44505e-014
rhumerus -34.9699 -2.11695 -85.8334
rradius 61.667
rwrist -31.3976
rhand -36.8233 -5.39795
rfingers 7.12502
rthumb -9.90418 -35.145
lclavicle -5.59082e-014 2.44505e-014
lhumerus -51.3924 10.7275 69.024
lradius 116.738
lwrist 27.8108
lhand -35.8344 15.6696
lfingers 7.12502
lthumb -8.95001 45.4598
rfemur -20.6073 14.7043 13.6113
rtibia 31.6648
rfoot -21.4198 2.46045
rtoes -11.3131
lfemur -9.06422 -2.33464 -4.43404
ltibia 25.5396
lfoot 2.09291 6.17884
ltoes -12.6862
2015
root 11.334 17.9765 -2.85028 -1.3996 -55.5635 11.1107
lowerback 4.39462 -0.129706 2.09369
upperback -0.376916 -0.15724 -2.89254
thorax -2.86898 -0.139063 -4.15703
lowerneck -0.824698 1.95132 14.1852
upperneck 0.628344 2.58389 -20.9234
head 0.803468 1.1797 -8.85556
rclavicle 6.60462e-014 2.96189e-014
rhumerus -34.5441 -2.20919 -86.6074
rradius 62.8398
rwrist -31.136
rhand -38.0123 -5.50015
rfingers 7.12502
rthumb -11.0511 -35.1892
lclavicle 6.60462e-014 2.96189e-014
lhumerus -52.5044 10.9315 67.7262
lradius 116.105
lwrist 29.6813
lhand -36.0611 16.3758
lfingers 7.12502
lthumb -9.16878 46.1565
rfemur -20.3922 14.9334 13.6863
rtibia 31.4768
rfoot -21.5209 2.84699
rtoes -11.685
lfemur -9.44549 -3.04659 -4.25307
ltibia 25.4915
lfoot 2.35179 6.10718
ltoes -14.2624
2016
root 11.2908 17.9862 -2.81748 -1.83204 -55.9682 11.4095
lowerback 4.49125 0.297339 2.07806
upperback -0.38533 0.404168 -3.12446
thorax -2.8813 0.138557 -4.42953
lowerneck -0.996185 1.77681 14.3248
upperneck 0.6693 2.33108 -20.743
head 0.796872 1.04811 -8.82366
rclavicle 3.38182e-014 -2.5842e-015
rhumerus -34.0626 -2.29116 -87.1873
rradius 64.1598
rwrist -30.7721
rhand -38.9143 -5.57232
rfingers 7.12502
rthumb -11.921 -35.2129
lclavicle 3.38182e-014 -2.5842e-015
lhumerus -53.4732 11.4146 66.5968
lradius 115.475
lwrist 31.5341
lhand -36.556 17.2318
lfingers 7.12502
lthumb -9.64624 46.9909
rfemur -19.9308 14.9564 13.609
rtibia 31.2038
rfoot -21.5109 3.47778
rtoes -10.3842
lfemur -9.87494 -3.81888 -4.29658
ltibia 25.5899
lfoot 2.88919 5.59013
ltoes -14.6794
2017
root 11.2519 18.0006 -2.78638 -2.1938 -56.2581 11.5572
lowerback 4.81135 0.681606 2.06077
upperback -0.461481 0.914313 -3.20755
thorax -3.09207 0.387624 -4.5487
lowerneck -1.32278 1.49756 14.1007
upperneck 1.16893 1.97922 -20.6748
head 0.924966 0.844278 -8.76536
rclavicle -7.98369e-014 -6.16232e-015
rhumerus -33.7412 -2.1818 -87.524
rradius 65.6412
rwrist -30.7171
rhand -39.2992 -5.2604
rfingers 7.12502
rthumb -12.2922 -34.8791
lclavicle -7.98369e-014 -6.16232e-015
lhumerus -54.5044 11.9489 65.6776
lradius 114.777
lwrist 33.501
lhand -37.0204 18.1271
lfingers 7.12502
lthumb -10.0943 47.865
rfemur -19.3705 15.0115 13.641
rtibia 30.8779
rfoot -21.2441 4.18171
rtoes -7.83055
lfemur -10.4663 -4.71991 -4.22557
ltibia 25.7927
lfoot 3.06265 4.96725
ltoes -20.2969
2018
root 11.2146 18.0049 -2.75222 -2.02698 -56.4499 11.0742
lowerback 5.16673 1.01942 2.4354
upperback -0.580977 1.39155 -3.1995
thorax -3.36286 0.612404 -4.7998
lowerneck -1.5163 1.22725 13.9292
upperneck 1.5259 1.63554 -20.6144
head 0.993191 0.654767 -8.72059
rclavicle 4.07509e-014 1.09332e-014
rhumerus -33.5206 -1.93248 -87.86
rradius 67.1975
rwrist -30.6207
rhand -39.4015 -4.90087
rfingers 7.12502
rthumb -12.3908 -34.5136
lclavicle 4.07509e-014 1.09332e-014
lhumerus -55.4942 12.3814 64.6999
lradius 113.934
lwrist 35.5896
lhand -37.3145 18.7998
lfingers 7.12502
lthumb -10.3781 48.5237
rfemur -18.7763 15.0651 14.0696
rtibia 30.5422
rfoot -21.0152 4.36162
rtoes -7.92319
lfemur -11.1245 -5.42266 -3.74289
ltibia 26.0253
lfoot 3.129 4.17803
ltoes -19.4694
2019
root 11.1782 18.0076 -2.70953 -1.50266 -56.5468 10.3067
lowerback 5.32445 1.26282 3.00184
upperback -0.726506 1.75827 -3.15522
thorax -3.55112 0.778818 -5.11235
lowerneck -1.56202 0.972681 13.8122
upperneck 1.74405 1.30975 -20.5674
head 1.0014 0.485081 -8.69004
rclavicle 3.2228e-014 3.04141e-014
rhumerus -33.2661 -1.5346 -88.2612
rradius 68.657
rwrist -30.2741
rhand -39.0912 -4.52989
rfingers 7.12502
rthumb -12.0916 -34.1605
lclavicle 3.2228e-014 3.04141e-014
lhumerus -56.5199 12.9435 63.6334
lradius 113.148
lwrist 37.6588
lhand -37.9729 19.5644
lfingers 7.12502
lthumb -11.0131 49.2555
rfemur -18.2716 15.0381 14.5915
rtibia 30.2326
rfoot -20.9334 4.48642
rtoes -8.36799
lfemur -11.8574 -6.04704 -3.0779
ltibia 26.2767
lfoot 3.19187 3.50223
ltoes -14.0318
2020
root 11.1432 18.0121 -2.66893 -1.19707 -56.8032 9.98094
lowerback 5.3377 1.59513 3.30599
upperback -0.882229 2.22176 -3.19289
thorax -3.65718 0.998168 -5.3654
lowerneck -1.75313 0.715371 13.6211
upperneck 2.1027 0.985496 -20.4262
head 1.07435 0.306315 -8.61426
rclavicle 4.27387e-014 -8.54774e-015
rhumerus -32.9965 -1.16223 -88.6358
rradius 70.0911
rwrist -29.9208
rhand -38.7626 -3.84644
rfingers 7.12502
rthumb -11.7748 -33.4955
lclavicle 4.27387e-014 -8.54774e-015
lhumerus -57.4123 13.3298 62.7378
lradius 112.407
lwrist 39.9869
lhand -39.2141 19.8591
lfingers 7.12502
lthumb -12.2101 49.4827
rfemur -18.0002 15.1386 14.7537
rtibia 29.9893
rfoot -20.7559 4.97101
rtoes -6.85402
lfemur -12.7358 -6.7467 -2.69985
ltibia 26.5291
lfoot 3.38116 3.09179
ltoes -10.785
2021
root 11.1125 18.0193 -2.63286 -1.32271 -57.041 10.0918
lowerback 5.43425 1.9743 3.42871
upperback -0.952707 2.73353 -3.32551
thorax -3.71381 1.24651 -5.62024
lowerneck -1.95301 0.456127 13.1624
upperneck 2.28207 0.637197 -19.9444
head 1.09376 0.122984 -8.37391
rclavicle 3.516e-014 2.46493e-014
rhumerus -32.7073 -0.815542 -88.9071
rradius 71.6319
rwrist -29.8871
rhand -38.2393 -2.87333
rfingers 7.12502
rthumb -11.27 -32.5506
lclavicle 3.516e-014 2.46493e-014
lhumerus -58.1472 13.864 61.3992
lradius 111.572
lwrist 40.8153
lhand -38.6057 22.5832
lfingers 7.12502
lthumb -11.6235 52.2408
rfemur -17.7533 15.2473 14.6761
rtibia 29.7901
rfoot -20.7329 5.19506
rtoes -6.47746
lfemur -13.6416 -7.4634 -2.62743
ltibia 26.7201
lfoot 3.80178 2.47215
ltoes -15.3772
2022
root 11.0884 18.0376 -2.5998 -1.16371 -57.1204 9.70301
lowerback 5.76415 2.30807 3.89176
upperback -1.00185 3.21902 -3.38917
thorax -3.86449 1.47253 -6.00768
lowerneck -2.14653 0.188919 12.6566
upperneck 2.42566 0.276001 -19.3677
head 1.1034 -0.0637479 -8.09496
rclavicle -1.34677e-014 7.15625e-015
rhumerus -32.4502 -0.693309 -89.0817
rradius 73.193
rwrist -29.7401
rhand -37.0283 -1.57804
rfingers 7.12502
rthumb -10.1019 -31.3156
lclavicle -1.34677e-014 7.15625e-015
lhumerus -58.8479 14.2515 60.2614
lradius 111.268
lwrist 42.6526
lhand -38.7852 25.4076
lfingers 7.12502
lthumb -11.7965 55.0553
rfemur -17.4226 15.347 14.9496
rtibia 29.6083
rfoot -20.7295 5.44333
rtoes -5.25127
lfemur -14.4508 -7.9368 -2.27984
ltibia 26.8216
lfoot 4.21826 1.62526
ltoes -20.1746
2023
root 11.0624 18.0544 -2.56114 -0.929246 -57.1959 9.1998
lowerback 6.08023 2.61883 4.45337
upperback -1.02998 3.6826 -3.49972
thorax -3.97079 1.68584 -6.50128
lowerneck -2.38936 -0.050993 12.679
upperneck 2.59589 -0.0564453 -19.1663
head 1.13735 -0.239284 -8.0386
rclavicle -5.40197e-014 1.25234e-014
rhumerus -32.0755 -0.737018 -89.3993
rradius 74.5215
rwrist -28.8671
rhand -35.4897 0.636356
rfingers 7.12502
rthumb -8.61734 -29.1678
lclavicle -5.40197e-014 1.25234e-014
lhumerus -59.4509 14.6319 59.0553
lradius 110.991
lwrist 44.8665
lhand -39.4667 27.4748
lfingers 7.12502
lthumb -12.4536 57.0838
rfemur -17.0385 15.3511 15.293
rtibia 29.4664
rfoot -20.587 5.85918
rtoes -3.75242
lfemur -15.0934 -8.42466 -1.88181
ltibia 26.8586
lfoot 4.41671 1.35054
ltoes -17.8873
2024
root 11.0265 18.06 -2.51278 -1.05384 -57.3609 9.12278
lowerback 6.21049 2.86948 4.64187
upperback -1.04451 4.03302 -3.59694
thorax -3.99013 1.85433 -6.74831
lowerneck -2.33729 -0.175232 13.073
upperneck 2.55126 -0.235029 -19.4265
head 1.08448 -0.324244 -8.19848
rclavicle 3.69367e-014 -3.91606e-014
rhumerus -31.7102 -0.233287 -89.8051
rradius 75.698
rwrist -27.9591
rhand -34.2029 2.67403
rfingers 7.12502
rthumb -7.37541 -27.1774
lclavicle 3.69367e-014 -3.91606e-014
lhumerus -60.338 15.2211 57.7472
lradius 110.474
lwrist 47.126
lhand -40.0423 28.4432
lfingers 7.12502
lthumb -13.0085 58.0176
rfemur -16.5355 15.2034 15.3675
rtibia 29.3109
rfoot -20.6173 6.20692
rtoes -4.37447
lfemur -15.5625 -9.00778 -1.76716
ltibia 26.9201
lfoot 4.49132 1.59005
ltoes -11.1857
